<svg xmlns="http://www.w3.org/2000/svg" xmlns:xlink="http://www.w3.org/1999/xlink" width="500" zoomAndPan="magnify" viewBox="0 0 375 374.999991" height="500" preserveAspectRatio="xMidYMid meet" version="1.0"><defs><clipPath id="30150ef1c3"><path d="M 37.5 43.664062 L 337.5 43.664062 L 337.5 343.664062 L 37.5 343.664062 Z M 37.5 43.664062 " clip-rule="nonzero"/></clipPath><clipPath id="5d4f2cd3d4"><path d="M 187.5 43.664062 C 188.632812 43.664062 190.332031 44.792969 192.59375 48.191406 C 194.859375 52.152344 196.554688 57.246094 198.820312 64.039062 C 202.21875 77.625 204.480469 96.304688 204.480469 117.246094 C 204.480469 129.132812 203.347656 139.890625 202.21875 150.078125 L 201.085938 161.398438 L 207.878906 152.339844 C 214.105469 144.417969 221.460938 135.925781 229.953125 128.003906 C 244.667969 112.71875 259.386719 101.398438 271.273438 94.039062 C 277.5 90.644531 282.59375 88.378906 286.554688 87.246094 C 290.519531 86.679688 292.21875 86.679688 292.78125 87.8125 L 293.347656 87.8125 C 293.914062 88.378906 294.480469 90.644531 293.914062 94.605469 C 292.78125 98.566406 290.519531 103.664062 287.121094 109.890625 C 280.332031 121.210938 269.574219 134.792969 255.992188 148.945312 L 253.160156 151.210938 C 245.234375 159.699219 236.746094 167.058594 228.820312 173.285156 L 219.765625 180.078125 L 231.085938 178.945312 C 241.273438 177.8125 252.027344 176.679688 263.914062 176.679688 C 284.859375 176.679688 303.539062 178.945312 317.121094 182.339844 C 323.914062 184.605469 329.007812 186.304688 332.972656 188.566406 C 336.367188 190.832031 337.5 192.53125 337.5 193.664062 C 337.5 194.792969 336.367188 196.492188 332.972656 198.757812 C 329.007812 201.019531 323.914062 202.71875 317.121094 204.984375 C 303.539062 208.378906 284.859375 210.644531 263.914062 210.644531 C 252.027344 210.644531 241.273438 209.511719 231.085938 208.378906 L 219.765625 207.246094 L 228.820312 214.039062 C 236.746094 220.265625 245.234375 227.625 253.160156 236.117188 C 268.445312 250.832031 279.765625 265.550781 287.121094 277.4375 C 290.519531 283.664062 292.78125 288.757812 293.914062 292.71875 C 294.480469 296.679688 293.914062 298.945312 293.347656 299.511719 C 292.78125 300.078125 290.519531 300.644531 286.554688 300.078125 C 282.59375 298.945312 277.5 296.679688 271.273438 293.285156 C 259.386719 285.925781 244.667969 274.605469 229.953125 259.324219 C 221.460938 251.398438 214.105469 242.90625 207.878906 234.984375 L 201.085938 225.925781 L 202.21875 237.246094 C 203.347656 247.4375 204.480469 258.191406 204.480469 270.078125 C 204.480469 291.019531 202.21875 309.699219 198.820312 323.285156 C 196.554688 330.078125 194.859375 335.171875 192.59375 339.132812 C 190.332031 342.53125 188.632812 343.664062 187.5 343.664062 C 186.367188 343.664062 184.667969 342.53125 182.40625 339.132812 C 180.140625 335.171875 178.445312 330.078125 176.179688 323.285156 C 172.78125 309.699219 170.519531 291.019531 170.519531 270.078125 C 170.519531 258.191406 171.652344 247.4375 172.78125 237.246094 L 173.914062 225.925781 L 167.121094 234.984375 C 162.027344 241.777344 155.234375 249.132812 148.445312 256.492188 L 145.046875 259.324219 C 130.332031 274.605469 115.613281 285.925781 103.726562 293.285156 C 97.5 296.679688 92.40625 298.945312 88.445312 300.078125 C 84.480469 300.644531 82.78125 300.644531 82.21875 300.078125 L 81.652344 299.511719 C 81.085938 298.945312 80.519531 296.679688 81.085938 292.71875 C 82.21875 288.757812 84.480469 283.664062 87.878906 277.4375 C 94.667969 266.117188 105.425781 252.53125 119.007812 238.378906 L 121.839844 236.117188 C 129.765625 227.625 138.253906 220.265625 146.179688 214.039062 L 155.234375 207.246094 L 143.914062 208.378906 C 133.726562 209.511719 122.972656 210.644531 111.085938 210.644531 C 90.140625 210.644531 71.460938 208.378906 57.878906 204.984375 C 51.085938 202.71875 45.992188 201.019531 42.027344 198.757812 C 38.632812 196.492188 37.5 194.792969 37.5 193.664062 C 37.5 192.53125 38.632812 190.832031 42.027344 188.566406 C 45.992188 186.304688 51.085938 184.605469 57.878906 182.339844 C 71.460938 178.945312 90.140625 176.679688 111.085938 176.679688 C 122.972656 176.679688 133.726562 177.8125 143.914062 178.945312 L 155.234375 180.078125 L 146.179688 173.285156 C 138.253906 167.058594 129.765625 159.699219 121.839844 151.210938 C 106.554688 136.492188 95.234375 121.777344 87.878906 109.890625 C 84.480469 103.664062 82.21875 98.566406 81.085938 94.605469 C 80.519531 90.644531 81.085938 88.378906 81.652344 87.8125 C 82.21875 87.246094 84.480469 86.117188 88.445312 87.246094 C 92.40625 88.378906 97.5 90.644531 103.726562 94.039062 C 115.046875 100.832031 128.632812 111.585938 142.78125 125.171875 L 145.046875 128.003906 C 153.539062 135.925781 160.894531 144.417969 167.121094 152.339844 L 173.914062 161.398438 L 172.78125 150.078125 C 171.652344 139.890625 170.519531 129.132812 170.519531 117.246094 C 170.519531 96.304688 172.78125 77.625 176.179688 64.039062 C 178.445312 57.246094 180.140625 52.152344 182.40625 48.191406 C 184.667969 44.792969 186.367188 43.664062 187.5 43.664062 Z M 187.5 43.664062 " clip-rule="nonzero"/></clipPath><clipPath id="ecf71ccbe8"><path d="M 0.5 0.664062 L 300.5 0.664062 L 300.5 300.664062 L 0.5 300.664062 Z M 0.5 0.664062 " clip-rule="nonzero"/></clipPath><clipPath id="35335d4558"><path d="M 150.5 0.664062 C 151.632812 0.664062 153.332031 1.792969 155.59375 5.191406 C 157.859375 9.152344 159.554688 14.246094 161.820312 21.039062 C 165.21875 34.625 167.480469 53.304688 167.480469 74.246094 C 167.480469 86.132812 166.347656 96.890625 165.21875 107.078125 L 164.085938 118.398438 L 170.878906 109.339844 C 177.105469 101.417969 184.460938 92.925781 192.953125 85.003906 C 207.667969 69.71875 222.386719 58.398438 234.273438 51.039062 C 240.5 47.644531 245.59375 45.378906 249.554688 44.246094 C 253.519531 43.679688 255.21875 43.679688 255.78125 44.8125 L 256.347656 44.8125 C 256.914062 45.378906 257.480469 47.644531 256.914062 51.605469 C 255.78125 55.566406 253.519531 60.664062 250.121094 66.890625 C 243.332031 78.210938 232.574219 91.792969 218.992188 105.945312 L 216.160156 108.210938 C 208.234375 116.699219 199.746094 124.058594 191.820312 130.285156 L 182.765625 137.078125 L 194.085938 135.945312 C 204.273438 134.8125 215.027344 133.679688 226.914062 133.679688 C 247.859375 133.679688 266.539062 135.945312 280.121094 139.339844 C 286.914062 141.605469 292.007812 143.304688 295.972656 145.566406 C 299.367188 147.832031 300.5 149.53125 300.5 150.664062 C 300.5 151.792969 299.367188 153.492188 295.972656 155.757812 C 292.007812 158.019531 286.914062 159.71875 280.121094 161.984375 C 266.539062 165.378906 247.859375 167.644531 226.914062 167.644531 C 215.027344 167.644531 204.273438 166.511719 194.085938 165.378906 L 182.765625 164.246094 L 191.820312 171.039062 C 199.746094 177.265625 208.234375 184.625 216.160156 193.117188 C 231.445312 207.832031 242.765625 222.550781 250.121094 234.4375 C 253.519531 240.664062 255.78125 245.757812 256.914062 249.71875 C 257.480469 253.679688 256.914062 255.945312 256.347656 256.511719 C 255.78125 257.078125 253.519531 257.644531 249.554688 257.078125 C 245.59375 255.945312 240.5 253.679688 234.273438 250.285156 C 222.386719 242.925781 207.667969 231.605469 192.953125 216.324219 C 184.460938 208.398438 177.105469 199.90625 170.878906 191.984375 L 164.085938 182.925781 L 165.21875 194.246094 C 166.347656 204.4375 167.480469 215.191406 167.480469 227.078125 C 167.480469 248.019531 165.21875 266.699219 161.820312 280.285156 C 159.554688 287.078125 157.859375 292.171875 155.59375 296.132812 C 153.332031 299.53125 151.632812 300.664062 150.5 300.664062 C 149.367188 300.664062 147.667969 299.53125 145.40625 296.132812 C 143.140625 292.171875 141.445312 287.078125 139.179688 280.285156 C 135.78125 266.699219 133.519531 248.019531 133.519531 227.078125 C 133.519531 215.191406 134.652344 204.4375 135.78125 194.246094 L 136.914062 182.925781 L 130.121094 191.984375 C 125.027344 198.777344 118.234375 206.132812 111.445312 213.492188 L 108.046875 216.324219 C 93.332031 231.605469 78.613281 242.925781 66.726562 250.285156 C 60.5 253.679688 55.40625 255.945312 51.445312 257.078125 C 47.480469 257.644531 45.78125 257.644531 45.21875 257.078125 L 44.652344 256.511719 C 44.085938 255.945312 43.519531 253.679688 44.085938 249.71875 C 45.21875 245.757812 47.480469 240.664062 50.878906 234.4375 C 57.667969 223.117188 68.425781 209.53125 82.007812 195.378906 L 84.839844 193.117188 C 92.765625 184.625 101.253906 177.265625 109.179688 171.039062 L 118.234375 164.246094 L 106.914062 165.378906 C 96.726562 166.511719 85.972656 167.644531 74.085938 167.644531 C 53.140625 167.644531 34.460938 165.378906 20.878906 161.984375 C 14.085938 159.71875 8.992188 158.019531 5.027344 155.757812 C 1.632812 153.492188 0.5 151.792969 0.5 150.664062 C 0.5 149.53125 1.632812 147.832031 5.027344 145.566406 C 8.992188 143.304688 14.085938 141.605469 20.878906 139.339844 C 34.460938 135.945312 53.140625 133.679688 74.085938 133.679688 C 85.972656 133.679688 96.726562 134.8125 106.914062 135.945312 L 118.234375 137.078125 L 109.179688 130.285156 C 101.253906 124.058594 92.765625 116.699219 84.839844 108.210938 C 69.554688 93.492188 58.234375 78.777344 50.878906 66.890625 C 47.480469 60.664062 45.21875 55.566406 44.085938 51.605469 C 43.519531 47.644531 44.085938 45.378906 44.652344 44.8125 C 45.21875 44.246094 47.480469 43.117188 51.445312 44.246094 C 55.40625 45.378906 60.5 47.644531 66.726562 51.039062 C 78.046875 57.832031 91.632812 68.585938 105.78125 82.171875 L 108.046875 85.003906 C 116.539062 92.925781 123.894531 101.417969 130.121094 109.339844 L 136.914062 118.398438 L 135.78125 107.078125 C 134.652344 96.890625 133.519531 86.132812 133.519531 74.246094 C 133.519531 53.304688 135.78125 34.625 139.179688 21.039062 C 141.445312 14.246094 143.140625 9.152344 145.40625 5.191406 C 147.667969 1.792969 149.367188 0.664062 150.5 0.664062 Z M 150.5 0.664062 " clip-rule="nonzero"/></clipPath><clipPath id="555433178a"><rect x="0" width="301" y="0" height="301"/></clipPath></defs><g clip-path="url(#30150ef1c3)"><g clip-path="url(#5d4f2cd3d4)"><g transform="matrix(1, 0, 0, 1, 37, 43)"><g clip-path="url(#555433178a)"><g clip-path="url(#ecf71ccbe8)"><g clip-path="url(#35335d4558)"><path fill="#222222" d="M 0.5 0.664062 L 300.5 0.664062 L 300.5 300.664062 L 0.5 300.664062 Z M 0.5 0.664062 " fill-opacity="1" fill-rule="nonzero"/></g></g></g></g></g></g></svg>